REM DIRINDEX 1\2\4\8,1\2\4\9,1\2\4\10,1\2\5\11,1\2\5\12,1\2\5\13,1\2\5\14,1\2\5\15,1\3\6\16,1\3\6\17,1\3\6\18,1\3\7\19,1\3\7\20,1\3\7\21,1\3\7\22,1\3\7\23
REM DIRNAME "folder01","folder02","folder03","folder04","folder05","folder06","folder07","folder08","folder09","folder10","folder11","folder12","folder13","folder14","folder15","folder16","folder17","folder18","folder19","folder20","folder21","folder22","folder23"
TITLE ""
FILE "LR_black_phrase_A09.mp3" MP3
  TRACK 01 AUDIO
    TITLE "0:"
    INDEX 01 00:00:00
  TRACK 02 AUDIO
    TITLE "19:cjc171_12201"
    INDEX 01 00:00:14
  TRACK 03 AUDIO
    TITLE "0:"
    INDEX 01 00:01:41
  TRACK 04 AUDIO
    TITLE "20:cjc171_12202"
    INDEX 01 00:02:07
  TRACK 05 AUDIO
    TITLE "0:"
    INDEX 01 00:05:00
  TRACK 06 AUDIO
    TITLE "21:cjc171_12203"
    INDEX 01 00:05:74
  TRACK 07 AUDIO
    TITLE "0:"
    INDEX 01 00:07:55
  TRACK 08 AUDIO
    TITLE "22:cjc171_12204"
    INDEX 01 00:08:18
  TRACK 09 AUDIO
    TITLE "0:"
    INDEX 01 00:10:22
  TRACK 10 AUDIO
    TITLE "23:cjc171_12205"
    INDEX 01 00:10:50
  TRACK 11 AUDIO
    TITLE "0:"
    INDEX 01 00:12:55
  TRACK 12 AUDIO
    TITLE "19:cjc171_12206"
    INDEX 01 00:13:56
  TRACK 13 AUDIO
    TITLE "0:"
    INDEX 01 00:14:73
  TRACK 14 AUDIO
    TITLE "20:cjc171_12207"
    INDEX 01 00:15:37
  TRACK 15 AUDIO
    TITLE "0:"
    INDEX 01 00:16:60
  TRACK 16 AUDIO
    TITLE "21:cjc171_12208"
    INDEX 01 00:17:60
  TRACK 17 AUDIO
    TITLE "0:"
    INDEX 01 00:19:15
  TRACK 18 AUDIO
    TITLE "22:cjc171_12209"
    INDEX 01 00:19:55
  TRACK 19 AUDIO
    TITLE "0:"
    INDEX 01 00:21:40
  TRACK 20 AUDIO
    TITLE "23:cjc171_12210"
    INDEX 01 00:21:67
  TRACK 21 AUDIO
    TITLE "0:"
    INDEX 01 00:23:52
  TRACK 22 AUDIO
    TITLE "19:cjc171_12211"
    INDEX 01 00:24:54
  TRACK 23 AUDIO
    TITLE "0:"
    INDEX 01 00:26:02
  TRACK 24 AUDIO
    TITLE "20:cjc171_12212"
    INDEX 01 00:26:41
  TRACK 25 AUDIO
    TITLE "0:"
    INDEX 01 00:28:60
  TRACK 26 AUDIO
    TITLE "21:cjc171_12213"
    INDEX 01 00:29:57
  TRACK 27 AUDIO
    TITLE "0:"
    INDEX 01 00:31:48
  TRACK 28 AUDIO
    TITLE "22:cjc171_12214"
    INDEX 01 00:32:14
  TRACK 29 AUDIO
    TITLE "0:"
    INDEX 01 00:34:19
  TRACK 30 AUDIO
    TITLE "23:cjc171_12215"
    INDEX 01 00:34:50
  TRACK 31 AUDIO
    TITLE "0:"
    INDEX 01 00:36:57
  TRACK 32 AUDIO
    TITLE "19:cjc171_12216"
    INDEX 01 00:37:55
  TRACK 33 AUDIO
    TITLE "0:"
    INDEX 01 00:39:14
  TRACK 34 AUDIO
    TITLE "20:cjc171_12217"
    INDEX 01 00:39:44
  TRACK 35 AUDIO
    TITLE "0:"
    INDEX 01 00:41:56
  TRACK 36 AUDIO
    TITLE "21:cjc171_12218"
    INDEX 01 00:42:56
  TRACK 37 AUDIO
    TITLE "0:"
    INDEX 01 00:44:70
  TRACK 38 AUDIO
    TITLE "22:cjc171_12219"
    INDEX 01 00:45:31
  TRACK 39 AUDIO
    TITLE "0:"
    INDEX 01 00:48:31
  TRACK 40 AUDIO
    TITLE "23:cjc171_12220"
    INDEX 01 00:48:58
  TRACK 41 AUDIO
    TITLE "0:"
    INDEX 01 00:51:59
  TRACK 42 AUDIO
    TITLE "19:cjc171_12221"
    INDEX 01 00:52:60
  TRACK 43 AUDIO
    TITLE "0:"
    INDEX 01 00:54:12
  TRACK 44 AUDIO
    TITLE "20:cjc171_12222"
    INDEX 01 00:54:49
  TRACK 45 AUDIO
    TITLE "0:"
    INDEX 01 00:55:58
  TRACK 46 AUDIO
    TITLE "21:cjc171_12223"
    INDEX 01 00:56:56
  TRACK 47 AUDIO
    TITLE "0:"
    INDEX 01 00:58:74
  TRACK 48 AUDIO
    TITLE "22:cjc171_12224"
    INDEX 01 00:59:35
  TRACK 49 AUDIO
    TITLE "0:"
    INDEX 01 01:01:69
  TRACK 50 AUDIO
    TITLE "23:cjc171_12225"
    INDEX 01 01:02:11
  TRACK 51 AUDIO
    TITLE "0:"
    INDEX 01 01:04:48
  TRACK 52 AUDIO
    TITLE "19:cjc171_12226"
    INDEX 01 01:05:41
  TRACK 53 AUDIO
    TITLE "0:"
    INDEX 01 01:06:64
  TRACK 54 AUDIO
    TITLE "20:cjc171_12227"
    INDEX 01 01:07:24
  TRACK 55 AUDIO
    TITLE "0:"
    INDEX 01 01:10:09
  TRACK 56 AUDIO
    TITLE "21:cjc171_12228"
    INDEX 01 01:11:06
  TRACK 57 AUDIO
    TITLE "0:"
    INDEX 01 01:13:56
  TRACK 58 AUDIO
    TITLE "22:cjc171_12229"
    INDEX 01 01:14:13
  TRACK 59 AUDIO
    TITLE "0:"
    INDEX 01 01:16:60
  TRACK 60 AUDIO
    TITLE "23:cjc171_12230"
    INDEX 01 01:17:13
  TRACK 61 AUDIO
    TITLE "0:"
    INDEX 01 01:19:63
  TRACK 62 AUDIO
    TITLE "19:cjc171_12231"
    INDEX 01 01:20:64
  TRACK 63 AUDIO
    TITLE "0:"
    INDEX 01 01:22:12
  TRACK 64 AUDIO
    TITLE "20:cjc171_12232"
    INDEX 01 01:22:47
  TRACK 65 AUDIO
    TITLE "0:"
    INDEX 01 01:23:53
  TRACK 66 AUDIO
    TITLE "21:cjc171_12233"
    INDEX 01 01:24:52
  TRACK 67 AUDIO
    TITLE "0:"
    INDEX 01 01:26:45
  TRACK 68 AUDIO
    TITLE "22:cjc171_12234"
    INDEX 01 01:27:04
  TRACK 69 AUDIO
    TITLE "0:"
    INDEX 01 01:28:62
  TRACK 70 AUDIO
    TITLE "23:cjc171_12235"
    INDEX 01 01:29:06
  TRACK 71 AUDIO
    TITLE "0:"
    INDEX 01 01:30:66
  TRACK 72 AUDIO
    TITLE "19:cjc171_12236"
    INDEX 01 01:31:72
  TRACK 73 AUDIO
    TITLE "0:"
    INDEX 01 01:33:14
  TRACK 74 AUDIO
    TITLE "20:cjc171_12237"
    INDEX 01 01:33:55
  TRACK 75 AUDIO
    TITLE "0:"
    INDEX 01 01:36:38
  TRACK 76 AUDIO
    TITLE "21:cjc171_12238"
    INDEX 01 01:37:35
  TRACK 77 AUDIO
    TITLE "0:"
    INDEX 01 01:39:34
  TRACK 78 AUDIO
    TITLE "22:cjc171_12239"
    INDEX 01 01:39:73
  TRACK 79 AUDIO
    TITLE "0:"
    INDEX 01 01:41:68
  TRACK 80 AUDIO
    TITLE "23:cjc171_12240"
    INDEX 01 01:42:19
  TRACK 81 AUDIO
    TITLE "0:"
    INDEX 01 01:44:16
  TRACK 82 AUDIO
    TITLE "19:cjc171_12241"
    INDEX 01 01:45:17
  TRACK 83 AUDIO
    TITLE "0:"
    INDEX 01 01:46:26
  TRACK 84 AUDIO
    TITLE "20:cjc171_12242"
    INDEX 01 01:46:66
  TRACK 85 AUDIO
    TITLE "0:"
    INDEX 01 01:49:11
  TRACK 86 AUDIO
    TITLE "21:cjc171_12243"
    INDEX 01 01:50:12
  TRACK 87 AUDIO
    TITLE "0:"
    INDEX 01 01:51:63
  TRACK 88 AUDIO
    TITLE "22:cjc171_12244"
    INDEX 01 01:52:27
  TRACK 89 AUDIO
    TITLE "0:"
    INDEX 01 01:54:08
  TRACK 90 AUDIO
    TITLE "23:cjc171_12245"
    INDEX 01 01:54:40
  TRACK 91 AUDIO
    TITLE "0:"
    INDEX 01 01:56:23
  TRACK 92 AUDIO
    TITLE "19:cjc171_12246"
    INDEX 01 01:57:22
  TRACK 93 AUDIO
    TITLE "0:"
    INDEX 01 01:58:45
  TRACK 94 AUDIO
    TITLE "20:cjc171_12247"
    INDEX 01 01:59:09
  TRACK 95 AUDIO
    TITLE "0:"
    INDEX 01 02:01:65
  TRACK 96 AUDIO
    TITLE "21:cjc171_12248"
    INDEX 01 02:02:65
  TRACK 97 AUDIO
    TITLE "0:"
    INDEX 01 02:05:12
  TRACK 98 AUDIO
    TITLE "22:cjc171_12249"
    INDEX 01 02:05:53
  TRACK 99 AUDIO
    TITLE "0:"
    INDEX 01 02:08:22
  TRACK 100 AUDIO
    TITLE "23:cjc171_12250"
    INDEX 01 02:08:49
  TRACK 101 AUDIO
    TITLE "0:"
    INDEX 01 02:11:16
  TRACK 102 AUDIO
    TITLE "19:cjc171_12251"
    INDEX 01 02:12:12
  TRACK 103 AUDIO
    TITLE "0:"
    INDEX 01 02:13:37
  TRACK 104 AUDIO
    TITLE "20:cjc171_12252"
    INDEX 01 02:13:74
  TRACK 105 AUDIO
    TITLE "0:"
    INDEX 01 02:16:43
  TRACK 106 AUDIO
    TITLE "21:cjc171_12253"
    INDEX 01 02:17:43
  TRACK 107 AUDIO
    TITLE "0:"
    INDEX 01 02:19:63
  TRACK 108 AUDIO
    TITLE "22:cjc171_12254"
    INDEX 01 02:20:19
  TRACK 109 AUDIO
    TITLE "0:"
    INDEX 01 02:23:22
  TRACK 110 AUDIO
    TITLE "23:cjc171_12255"
    INDEX 01 02:23:41
  TRACK 111 AUDIO
    TITLE "0:"
    INDEX 01 02:26:43
  TRACK 112 AUDIO
    TITLE "19:cjc171_12256"
    INDEX 01 02:27:39
  TRACK 113 AUDIO
    TITLE "0:"
    INDEX 01 02:28:50
  TRACK 114 AUDIO
    TITLE "20:cjc171_12257"
    INDEX 01 02:29:14
  TRACK 115 AUDIO
    TITLE "0:"
    INDEX 01 02:32:26
  TRACK 116 AUDIO
    TITLE "21:cjc171_12258"
    INDEX 01 02:33:24
  TRACK 117 AUDIO
    TITLE "0:"
    INDEX 01 02:35:25
  TRACK 118 AUDIO
    TITLE "22:cjc171_12259"
    INDEX 01 02:35:62
  TRACK 119 AUDIO
    TITLE "0:"
    INDEX 01 02:37:43
  TRACK 120 AUDIO
    TITLE "23:cjc171_12260"
    INDEX 01 02:37:69
  TRACK 121 AUDIO
    TITLE "0:"
    INDEX 01 02:39:48
  TRACK 122 AUDIO
    TITLE "19:cjc171_12261"
    INDEX 01 02:40:49
  TRACK 123 AUDIO
    TITLE "0:"
    INDEX 01 02:41:70
  TRACK 124 AUDIO
    TITLE "20:cjc171_12262"
    INDEX 01 02:42:35
  TRACK 125 AUDIO
    TITLE "0:"
    INDEX 01 02:45:06
  TRACK 126 AUDIO
    TITLE "21:cjc171_12263"
    INDEX 01 02:46:05
  TRACK 127 AUDIO
    TITLE "0:"
    INDEX 01 02:48:16
  TRACK 128 AUDIO
    TITLE "22:cjc171_12264"
    INDEX 01 02:48:55
  TRACK 129 AUDIO
    TITLE "0:"
    INDEX 01 02:50:73
  TRACK 130 AUDIO
    TITLE "23:cjc171_12265"
    INDEX 01 02:51:28
  TRACK 131 AUDIO
    TITLE "0:"
    INDEX 01 02:53:46
  TRACK 132 AUDIO
    TITLE "19:cjc171_12266"
    INDEX 01 02:54:50
  TRACK 133 AUDIO
    TITLE "0:"
    INDEX 01 02:56:03
  TRACK 134 AUDIO
    TITLE "20:cjc171_12267"
    INDEX 01 02:56:43
  TRACK 135 AUDIO
    TITLE "0:"
    INDEX 01 02:58:00
  TRACK 136 AUDIO
    TITLE "21:cjc171_12268"
    INDEX 01 02:59:06
  TRACK 137 AUDIO
    TITLE "0:"
    INDEX 01 03:02:14
  TRACK 138 AUDIO
    TITLE "22:cjc171_12269"
    INDEX 01 03:02:51
  TRACK 139 AUDIO
    TITLE "0:"
    INDEX 01 03:06:47
  TRACK 140 AUDIO
    TITLE "23:cjc171_12270"
    INDEX 01 03:06:74
  TRACK 141 AUDIO
    TITLE "0:"
    INDEX 01 03:10:70
  TRACK 142 AUDIO
    TITLE "19:cjc171_12271"
    INDEX 01 03:12:01
  TRACK 143 AUDIO
    TITLE "0:"
    INDEX 01 03:13:14
  TRACK 144 AUDIO
    TITLE "20:cjc171_12272"
    INDEX 01 03:13:53
  TRACK 145 AUDIO
    TITLE "0:"
    INDEX 01 03:16:36
  TRACK 146 AUDIO
    TITLE "21:cjc171_12273"
    INDEX 01 03:17:35
  TRACK 147 AUDIO
    TITLE "0:"
    INDEX 01 03:19:20
  TRACK 148 AUDIO
    TITLE "22:cjc171_12274"
    INDEX 01 03:19:61
  TRACK 149 AUDIO
    TITLE "0:"
    INDEX 01 03:21:48
  TRACK 150 AUDIO
    TITLE "23:cjc171_12275"
    INDEX 01 03:22:05
  TRACK 151 AUDIO
    TITLE "0:"
    INDEX 01 03:23:67
  TRACK 152 AUDIO
    TITLE "19:cjc171_12276"
    INDEX 01 03:24:72
  TRACK 153 AUDIO
    TITLE "0:"
    INDEX 01 03:26:14
  TRACK 154 AUDIO
    TITLE "20:cjc171_12277"
    INDEX 01 03:26:50
  TRACK 155 AUDIO
    TITLE "0:"
    INDEX 01 03:30:32
  TRACK 156 AUDIO
    TITLE "21:cjc171_12278"
    INDEX 01 03:31:37
  TRACK 157 AUDIO
    TITLE "0:"
    INDEX 01 03:33:18
  TRACK 158 AUDIO
    TITLE "22:cjc171_12279"
    INDEX 01 03:33:54
  TRACK 159 AUDIO
    TITLE "0:"
    INDEX 01 03:36:07
  TRACK 160 AUDIO
    TITLE "23:cjc171_12280"
    INDEX 01 03:36:26
  TRACK 161 AUDIO
    TITLE "0:"
    INDEX 01 03:38:57
  TRACK 162 AUDIO
    TITLE "19:cjc171_12281"
    INDEX 01 03:39:52
  TRACK 163 AUDIO
    TITLE "0:"
    INDEX 01 03:40:69
  TRACK 164 AUDIO
    TITLE "20:cjc171_12282"
    INDEX 01 03:41:33
  TRACK 165 AUDIO
    TITLE "0:"
    INDEX 01 03:43:68
  TRACK 166 AUDIO
    TITLE "21:cjc171_12283"
    INDEX 01 03:44:67
  TRACK 167 AUDIO
    TITLE "0:"
    INDEX 01 03:46:33
  TRACK 168 AUDIO
    TITLE "22:cjc171_12284"
    INDEX 01 03:46:66
  TRACK 169 AUDIO
    TITLE "0:"
    INDEX 01 03:49:02
  TRACK 170 AUDIO
    TITLE "23:cjc171_12285"
    INDEX 01 03:49:27
  TRACK 171 AUDIO
    TITLE "0:"
    INDEX 01 03:51:34
  TRACK 172 AUDIO
    TITLE "19:cjc171_12286"
    INDEX 01 03:52:31
  TRACK 173 AUDIO
    TITLE "0:"
    INDEX 01 03:53:62
  TRACK 174 AUDIO
    TITLE "20:cjc171_12287"
    INDEX 01 03:54:24
  TRACK 175 AUDIO
    TITLE "0:"
    INDEX 01 03:57:44
  TRACK 176 AUDIO
    TITLE "21:cjc171_12288"
    INDEX 01 03:58:44
  TRACK 177 AUDIO
    TITLE "0:"
    INDEX 01 04:00:52
  TRACK 178 AUDIO
    TITLE "22:cjc171_12289"
    INDEX 01 04:01:15
  TRACK 179 AUDIO
    TITLE "0:"
    INDEX 01 04:03:08
  TRACK 180 AUDIO
    TITLE "23:cjc171_12290"
    INDEX 01 04:03:27
  TRACK 181 AUDIO
    TITLE "0:"
    INDEX 01 04:05:22
  TRACK 182 AUDIO
    TITLE "19:cjc171_12291"
    INDEX 01 04:06:22
  TRACK 183 AUDIO
    TITLE "0:"
    INDEX 01 04:07:39
  TRACK 184 AUDIO
    TITLE "20:cjc171_12292"
    INDEX 01 04:08:03
  TRACK 185 AUDIO
    TITLE "0:"
    INDEX 01 04:10:37
  TRACK 186 AUDIO
    TITLE "21:cjc171_12293"
    INDEX 01 04:11:35
  TRACK 187 AUDIO
    TITLE "0:"
    INDEX 01 04:13:43
  TRACK 188 AUDIO
    TITLE "22:cjc171_12294"
    INDEX 01 04:14:09
  TRACK 189 AUDIO
    TITLE "0:"
    INDEX 01 04:16:51
  TRACK 190 AUDIO
    TITLE "23:cjc171_12295"
    INDEX 01 04:17:08
  TRACK 191 AUDIO
    TITLE "0:"
    INDEX 01 04:19:50
  TRACK 192 AUDIO
    TITLE "19:cjc171_12296"
    INDEX 01 04:20:55
  TRACK 193 AUDIO
    TITLE "0:"
    INDEX 01 04:22:01
  TRACK 194 AUDIO
    TITLE "20:cjc171_12297"
    INDEX 01 04:22:42
  TRACK 195 AUDIO
    TITLE "0:"
    INDEX 01 04:24:72
  TRACK 196 AUDIO
    TITLE "21:cjc171_12298"
    INDEX 01 04:25:70
  TRACK 197 AUDIO
    TITLE "0:"
    INDEX 01 04:28:19
  TRACK 198 AUDIO
    TITLE "22:cjc171_12299"
    INDEX 01 04:28:61
  TRACK 199 AUDIO
    TITLE "0:"
    INDEX 01 04:31:26
  TRACK 200 AUDIO
    TITLE "23:cjc171_12300"
    INDEX 01 04:31:55
  TRACK 201 AUDIO
    TITLE "0:"
    INDEX 01 04:34:20
  TRACK 202 AUDIO
    TITLE "19:cjc171_12301"
    INDEX 01 04:35:25
  TRACK 203 AUDIO
    TITLE "0:"
    INDEX 01 04:36:37
  TRACK 204 AUDIO
    TITLE "20:cjc171_12302"
    INDEX 01 04:37:03
  TRACK 205 AUDIO
    TITLE "0:"
    INDEX 01 04:39:52
  TRACK 206 AUDIO
    TITLE "21:cjc171_12303"
    INDEX 01 04:40:52
  TRACK 207 AUDIO
    TITLE "0:"
    INDEX 01 04:42:74
  TRACK 208 AUDIO
    TITLE "22:cjc171_12304"
    INDEX 01 04:43:37
  TRACK 209 AUDIO
    TITLE "0:"
    INDEX 01 04:46:17
  TRACK 210 AUDIO
    TITLE "23:cjc171_12305"
    INDEX 01 04:46:47
  TRACK 211 AUDIO
    TITLE "0:"
    INDEX 01 04:49:27
  TRACK 212 AUDIO
    TITLE "19:cjc171_12306"
    INDEX 01 04:50:27
  TRACK 213 AUDIO
    TITLE "0:"
    INDEX 01 04:51:65
  TRACK 214 AUDIO
    TITLE "20:cjc171_12307"
    INDEX 01 04:52:34
  TRACK 215 AUDIO
    TITLE "0:"
    INDEX 01 04:55:61
  TRACK 216 AUDIO
    TITLE "21:cjc171_12308"
    INDEX 01 04:56:59
  TRACK 217 AUDIO
    TITLE "0:"
    INDEX 01 04:59:30
  TRACK 218 AUDIO
    TITLE "22:cjc171_12309"
    INDEX 01 04:59:67
  TRACK 219 AUDIO
    TITLE "0:"
    INDEX 01 05:02:05
  TRACK 220 AUDIO
    TITLE "23:cjc171_12310"
    INDEX 01 05:02:26
  TRACK 221 AUDIO
    TITLE "0:"
    INDEX 01 05:04:39
  TRACK 222 AUDIO
    TITLE "19:cjc171_12311"
    INDEX 01 05:05:36
  TRACK 223 AUDIO
    TITLE "0:"
    INDEX 01 05:06:61
  TRACK 224 AUDIO
    TITLE "20:cjc171_12312"
    INDEX 01 05:07:19
  TRACK 225 AUDIO
    TITLE "0:"
    INDEX 01 05:09:38
  TRACK 226 AUDIO
    TITLE "21:cjc171_12313"
    INDEX 01 05:10:37
  TRACK 227 AUDIO
    TITLE "0:"
    INDEX 01 05:12:50
  TRACK 228 AUDIO
    TITLE "22:cjc171_12314"
    INDEX 01 05:13:06
  TRACK 229 AUDIO
    TITLE "0:"
    INDEX 01 05:15:11
  TRACK 230 AUDIO
    TITLE "23:cjc171_12315"
    INDEX 01 05:15:33
  TRACK 231 AUDIO
    TITLE "0:"
    INDEX 01 05:17:37
  TRACK 232 AUDIO
    TITLE "19:cjc171_12316"
    INDEX 01 05:18:33
  TRACK 233 AUDIO
    TITLE "0:"
    INDEX 01 05:19:28
  TRACK 234 AUDIO
    TITLE "20:cjc171_12317"
    INDEX 01 05:19:64
  TRACK 235 AUDIO
    TITLE "0:"
    INDEX 01 05:22:70
  TRACK 236 AUDIO
    TITLE "21:cjc171_12318"
    INDEX 01 05:23:67
  TRACK 237 AUDIO
    TITLE "0:"
    INDEX 01 05:25:51
  TRACK 238 AUDIO
    TITLE "22:cjc171_12319"
    INDEX 01 05:26:11
  TRACK 239 AUDIO
    TITLE "0:"
    INDEX 01 05:28:00
  TRACK 240 AUDIO
    TITLE "23:cjc171_12320"
    INDEX 01 05:28:24
  TRACK 241 AUDIO
    TITLE "0:"
    INDEX 01 05:30:13
  TRACK 242 AUDIO
    TITLE "19:cjc171_12321"
    INDEX 01 05:31:16
  TRACK 243 AUDIO
    TITLE "0:"
    INDEX 01 05:32:29
  TRACK 244 AUDIO
    TITLE "20:cjc171_12322"
    INDEX 01 05:32:66
  TRACK 245 AUDIO
    TITLE "0:"
    INDEX 01 05:35:49
  TRACK 246 AUDIO
    TITLE "21:cjc171_12323"
    INDEX 01 05:36:50
  TRACK 247 AUDIO
    TITLE "0:"
    INDEX 01 05:39:23
  TRACK 248 AUDIO
    TITLE "22:cjc171_12324"
    INDEX 01 05:39:63
  TRACK 249 AUDIO
    TITLE "0:"
    INDEX 01 05:42:43
  TRACK 250 AUDIO
    TITLE "23:cjc171_12325"
    INDEX 01 05:42:73
  TRACK 251 AUDIO
    TITLE "0:"
    INDEX 01 05:45:53
  TRACK 252 AUDIO
    TITLE "19:cjc171_12326"
    INDEX 01 05:46:57
  TRACK 253 AUDIO
    TITLE "0:"
    INDEX 01 05:48:05
  TRACK 254 AUDIO
    TITLE "20:cjc171_12327"
    INDEX 01 05:48:44
  TRACK 255 AUDIO
    TITLE "0:"
    INDEX 01 05:51:23
  TRACK 256 AUDIO
    TITLE "21:cjc171_12328"
    INDEX 01 05:52:18
  TRACK 257 AUDIO
    TITLE "0:"
    INDEX 01 05:55:09
  TRACK 258 AUDIO
    TITLE "22:cjc171_12329"
    INDEX 01 05:55:48
  TRACK 259 AUDIO
    TITLE "0:"
    INDEX 01 05:58:21
  TRACK 260 AUDIO
    TITLE "23:cjc171_12330"
    INDEX 01 05:58:52
  TRACK 261 AUDIO
    TITLE "0:"
    INDEX 01 06:01:23
  TRACK 262 AUDIO
    TITLE "19:cjc171_12331"
    INDEX 01 06:02:26
  TRACK 263 AUDIO
    TITLE "0:"
    INDEX 01 06:03:39
  TRACK 264 AUDIO
    TITLE "20:cjc171_12332"
    INDEX 01 06:04:02
  TRACK 265 AUDIO
    TITLE "0:"
    INDEX 01 06:05:29
  TRACK 266 AUDIO
    TITLE "21:cjc171_12333"
    INDEX 01 06:06:28
  TRACK 267 AUDIO
    TITLE "0:"
    INDEX 01 06:09:30
  TRACK 268 AUDIO
    TITLE "22:cjc171_12334"
    INDEX 01 06:09:71
  TRACK 269 AUDIO
    TITLE "0:"
    INDEX 01 06:12:11
  TRACK 270 AUDIO
    TITLE "23:cjc171_12335"
    INDEX 01 06:12:40
  TRACK 271 AUDIO
    TITLE "0:"
    INDEX 01 06:14:53
  TRACK 272 AUDIO
    TITLE "19:cjc171_12336"
    INDEX 01 06:15:49
  TRACK 273 AUDIO
    TITLE "0:"
    INDEX 01 06:16:66
  TRACK 274 AUDIO
    TITLE "20:cjc171_12337"
    INDEX 01 06:17:28
  TRACK 275 AUDIO
    TITLE "0:"
    INDEX 01 06:19:60
  TRACK 276 AUDIO
    TITLE "21:cjc171_12338"
    INDEX 01 06:20:60
  TRACK 277 AUDIO
    TITLE "0:"
    INDEX 01 06:22:23
  TRACK 278 AUDIO
    TITLE "22:cjc171_12339"
    INDEX 01 06:22:55
  TRACK 279 AUDIO
    TITLE "0:"
    INDEX 01 06:24:67
  TRACK 280 AUDIO
    TITLE "23:cjc171_12340"
    INDEX 01 06:25:14
  TRACK 281 AUDIO
    TITLE "0:"
    INDEX 01 06:27:24
  TRACK 282 AUDIO
    TITLE "19:cjc171_12341"
    INDEX 01 06:28:22
  TRACK 283 AUDIO
    TITLE "0:"
    INDEX 01 06:29:51
  TRACK 284 AUDIO
    TITLE "20:cjc171_12342"
    INDEX 01 06:30:11
  TRACK 285 AUDIO
    TITLE "0:"
    INDEX 01 06:32:31
  TRACK 286 AUDIO
    TITLE "21:cjc171_12343"
    INDEX 01 06:33:25
  TRACK 287 AUDIO
    TITLE "0:"
    INDEX 01 06:35:30
  TRACK 288 AUDIO
    TITLE "22:cjc171_12344"
    INDEX 01 06:35:65
  TRACK 289 AUDIO
    TITLE "0:"
    INDEX 01 06:38:05
  TRACK 290 AUDIO
    TITLE "23:cjc171_12345"
    INDEX 01 06:38:22
  TRACK 291 AUDIO
    TITLE "0:"
    INDEX 01 06:40:37
  TRACK 292 AUDIO
    TITLE "19:cjc171_12346"
    INDEX 01 06:41:30
  TRACK 293 AUDIO
    TITLE "0:"
    INDEX 01 06:42:49
  TRACK 294 AUDIO
    TITLE "20:cjc171_12347"
    INDEX 01 06:43:12
  TRACK 295 AUDIO
    TITLE "0:"
    INDEX 01 06:45:59
  TRACK 296 AUDIO
    TITLE "21:cjc171_12348"
    INDEX 01 06:46:61
  TRACK 297 AUDIO
    TITLE "0:"
    INDEX 01 06:48:40
  TRACK 298 AUDIO
    TITLE "22:cjc171_12349"
    INDEX 01 06:49:00
  TRACK 299 AUDIO
    TITLE "0:"
    INDEX 01 06:51:21
  TRACK 300 AUDIO
    TITLE "23:cjc171_12350"
    INDEX 01 06:51:42
  TRACK 301 AUDIO
    TITLE "0:"
    INDEX 01 06:53:63
